<?xml version="1.0" encoding="utf-8"?>
<!-- Generator: Adobe Illustrator 23.0.2, SVG Export Plug-In . SVG Version: 6.00 Build 0)  -->
<svg version="1.1" id="Layer_1" xmlns="http://www.w3.org/2000/svg" xmlns:xlink="http://www.w3.org/1999/xlink" x="0px" y="0px"
	 width="64px" height="64px" viewBox="0 0 64 64" enable-background="new 0 0 64 64" xml:space="preserve">
<g>
	<path fill="#1A73E8" d="M37.34,7.82C35.66,7.29,33.86,7,32,7c-5.43,0-10.29,2.45-13.54,6.31l8.35,7.02L37.34,7.82z"/>
	<path fill="#EA4335" d="M18.46,13.31c-2.58,3.07-4.14,7.04-4.14,11.36c0,3.32,0.66,6.02,1.75,8.43l10.74-12.77L18.46,13.31z"/>
	<path fill="#4285F4" d="M32,17.92c3.73,0,6.76,3.03,6.76,6.76c0,1.66-0.6,3.19-1.6,4.37c0,0,5.34-6.35,10.52-12.51
		c-2.14-4.12-5.85-7.29-10.35-8.71L26.82,20.34C28.06,18.86,29.92,17.92,32,17.92"/>
	<path fill="#FBBC04" d="M32,31.44c-3.73,0-6.76-3.03-6.76-6.76c0-1.65,0.59-3.17,1.58-4.34L16.07,33.11
		c1.84,4.07,4.89,7.34,8.03,11.46l13.06-15.52C35.92,30.51,34.07,31.44,32,31.44"/>
	<path fill="#34A853" d="M36.9,48.8c5.9-9.22,12.77-13.41,12.77-24.13c0-2.94-0.72-5.71-1.99-8.15L24.11,44.57
		c1,1.31,2.01,2.7,2.99,4.24c3.58,5.54,2.59,8.86,4.9,8.86S33.32,54.34,36.9,48.8"/>
</g>
</svg>
